<?xml version="1.0" standalone="no"?>
<!DOCTYPE svg PUBLIC "-//W3C//DTD SVG 20010904//EN"
 "http://www.w3.org/TR/2001/REC-SVG-20010904/DTD/svg10.dtd">
<svg version="1.0" xmlns="http://www.w3.org/2000/svg"
 width="500.000000pt" height="500.000000pt" viewBox="0 0 500.000000 500.000000"
 preserveAspectRatio="xMidYMid meet">

<g transform="translate(0.000000,500.000000) scale(0.100000,-0.100000)"
fill="#000000" stroke="none">
<path d="M2457 4814 c-4 -4 -7 -168 -7 -364 l0 -357 -76 -6 c-180 -16 -415
-82 -571 -161 l-81 -41 52 -57 51 -58 62 29 c144 68 388 131 509 131 l54 0 2
-342 3 -343 45 0 45 0 3 343 2 342 48 0 c126 0 384 -66 517 -132 455 -227 754
-651 804 -1139 5 -52 7 -97 4 -101 -2 -5 -198 -8 -434 -8 l-430 0 3 -42 3 -43
433 -3 432 -2 -6 -58 c-27 -266 -101 -479 -242 -691 l-56 -85 39 -72 c21 -40
42 -71 47 -68 16 10 115 151 160 229 120 208 208 501 208 695 l0 50 390 0 390
0 0 45 0 45 -390 0 -390 0 0 58 c0 65 -21 198 -44 290 -136 522 -523 938
-1029 1107 -118 39 -273 72 -381 82 l-76 6 -2 361 -3 361 -40 3 c-23 2 -44 0
-48 -4z"/>
<path d="M570 3846 l0 -796 393 0 c215 0 419 5 452 10 196 32 320 148 355 330
15 78 12 189 -6 250 -36 121 -113 188 -274 237 -9 2 11 18 50 39 137 73 210
182 218 327 11 195 -78 321 -263 373 -51 14 -126 18 -492 21 l-433 5 0 -796z
m810 518 c51 -21 70 -56 70 -129 0 -125 -79 -212 -240 -263 -36 -11 -77 -23
-92 -26 l-28 -6 0 -95 0 -95 83 0 c116 0 182 -21 233 -75 87 -90 84 -269 -6
-337 -38 -28 -126 -38 -342 -38 l-198 0 0 540 0 540 240 0 c198 0 247 -3 280
-16z"/>
<path d="M2390 3058 c0 -2 -101 -239 -224 -528 l-223 -525 95 -3 c52 -1 99 1
103 5 4 4 83 193 174 418 92 226 170 413 173 417 4 4 44 -81 88 -188 l82 -194
-107 0 -106 0 -30 -77 c-17 -42 -31 -80 -33 -85 -2 -4 75 -8 171 -8 l175 0 58
-137 c31 -76 60 -142 64 -146 4 -4 52 -6 108 -5 l101 3 -228 525 -228 525
-106 3 c-59 1 -107 1 -107 0z"/>
<path d="M962 2878 c-26 -113 -42 -221 -42 -282 l0 -46 -390 0 -390 0 0 -45 0
-45 390 0 390 0 0 -49 c0 -27 9 -101 20 -164 92 -537 449 -991 940 -1196 173
-72 380 -121 513 -121 l57 0 0 -360 0 -360 50 0 50 0 0 360 0 360 58 0 c67 0
211 23 302 47 l65 18 3 40 c2 22 1 59 -3 81 l-6 41 -82 -24 c-82 -24 -251 -53
-307 -53 l-30 0 0 465 0 465 -50 0 -50 0 0 -465 0 -465 -35 0 c-57 0 -218 29
-308 55 -477 138 -855 519 -983 990 -23 84 -53 261 -54 313 l0 22 430 0 430 0
0 45 0 45 -430 0 -430 0 0 28 c1 49 29 226 50 302 11 41 20 78 20 83 0 4 -35
7 -78 7 l-78 0 -22 -92z"/>
<path d="M3090 1115 l0 -795 135 0 135 0 2 547 3 547 216 -545 216 -544 128 0
127 0 211 543 212 543 3 -546 2 -545 135 0 135 0 0 795 0 796 -146 -3 -146 -3
-261 -597 c-144 -329 -265 -594 -269 -590 -4 4 -125 273 -270 597 l-264 590
-152 3 -152 3 0 -796z"/>
</g>
</svg>
