<svg width="210" height="297" viewBox="0 0 210 297" xmlns="http://www.w3.org/2000/svg"><rect x="0" y="0" width="210" height="297" stroke="none" fill="#ffffff"></rect><rect transform="rotate(0 12.482000000002358 192.10114207306756) translate(12.482000000002358 192.10114207306756) scale(1, 1) translate(-12.482000000002358 -192.10114207306756)" x="12.482000000002358" y="192.10114207306756" rx="9.976" ry="9.976" width="34.91600000000014" height="34.91599999999863" fill="none" stroke="#000000" fill-opacity="1" stroke-opacity="1" stroke-width="2.494" stroke-dasharray="0,0" stroke-linejoin="round"></rect><path d="M 22.95680000000235 200.5807420730674 A 1.9952 1.9952 0 1 1 22.956799002402434 200.57874687339992" stroke="#000000" fill="#000000" fill-opacity="1" stroke-opacity="1" stroke-width="2.494" stroke-dasharray="0,0" stroke-linecap="round"></path><path d="M 41.28187795456866 222.05680130955258 L 33.561427225924675 208.33426084254708 L 27.34457649289972 222.05680130955258" fill="none" stroke="#000000" fill-opacity="1" stroke-opacity="1" stroke-width="2.494" stroke-dasharray="0,0" stroke-linecap="round" stroke-linejoin="round"></path><path d="M 18.408827680761377 222.05680130955258 L 25.630506851085798 211.90868524125423 L 30.453001859412225 215.19553107604995" fill="none" stroke="#000000" fill-opacity="1" stroke-opacity="1" stroke-width="2.494" stroke-dasharray="0,0" stroke-linecap="round" stroke-linejoin="round"></path><path d="M 23.28750000000015 77.53495228131632 L 8.325000000000017 51.619142073067195 L 23.287499999999866 25.70333186481783 L 53.21249999999978 25.70333186481766 L 68.17499999999998 51.61914207306697 L 53.212500000000006 77.53495228131624 L 23.28750000000015 77.53495228131632" fill="#517ce1" stroke="#000000" fill-opacity="1" stroke-opacity="1" stroke-width="0.7" stroke-dasharray="0,0" stroke-linecap="round" stroke-linejoin="round"></path><path d="M 12.33418979175076 66.58164207306709 L 12.334189791750646 36.65664207306715 L 38.249999999999844 21.69414207306711 L 64.16581020824927 36.656642073067005 L 64.16581020824927 66.58164207306694 L 38.25000000000007 81.54414207306698 L 12.33418979175076 66.58164207306709" fill="#40c5f2" stroke="#000000" fill-opacity="1" stroke-opacity="1" stroke-width="0.7" stroke-dasharray="0,0" stroke-linecap="round" stroke-linejoin="round"></path><path d="M 18.319189791750617 36.656642073067005 L 33.761249999999976 36.656642073067005" fill="none" stroke="#000000" fill-opacity="1" stroke-opacity="1" stroke-width="1.05" stroke-dasharray="0,0" stroke-linecap="round" stroke-linejoin="round"></path><path d="M 35.42208749999999 47.130392073067014 L 38.24999999999996 53.95757678377143 L 41.077912499999925 47.130392073067014" fill="#7296e9" stroke="#000000" fill-opacity="1" stroke-opacity="1" stroke-width="0.7" stroke-dasharray="0,0" stroke-linecap="round" stroke-linejoin="round"></path><path d="M 42.73874999999977 36.656642073067005 L 58.180810208249255 36.656642073067005" fill="none" stroke="#000000" fill-opacity="1" stroke-opacity="1" stroke-width="1.05" stroke-dasharray="0,0" stroke-linecap="round" stroke-linejoin="round"></path><path d="M 0 0 L 0 12.119625 A 1.7955 1.7955 0 1 0 3.591 12.119625 L 3.5909999999999997 -12.119625 A 1.7955 1.7955 0 0 1 7.182 -12.119625 L 7.182 12.119625 A 1.7955 1.7955 0 1 0 10.773000000000001 12.119625 L 10.773 -12.119625 A 1.7955 1.7955 0 0 1 13.90173933796435 -13.322244273795484 " transform="translate(38.24999999999996 56.95007678377142) rotate(90)" fill="none" stroke="#000000" fill-opacity="1" stroke-opacity="1" stroke-width="1.05" stroke-dasharray="0,0" stroke-linecap="round" stroke-linejoin="round"></path><path d="M 18.319189791750617 39.649142073067026 L 33.761249999999976 39.649142073067026" fill="none" stroke="#000000" fill-opacity="1" stroke-opacity="1" stroke-width="1.05" stroke-dasharray="0,0" stroke-linecap="round" stroke-linejoin="round"></path><path d="M 42.73874999999977 39.649142073067026 L 58.180810208249255 39.649142073067026" fill="none" stroke="#000000" fill-opacity="1" stroke-opacity="1" stroke-width="1.05" stroke-dasharray="0,0" stroke-linecap="round" stroke-linejoin="round"></path><rect transform="rotate(0 33.761249999999976 32.167892073066994) translate(33.761249999999976 32.167892073066994) scale(1, 1) translate(-33.761249999999976 -32.167892073066994)" x="33.761249999999976" y="32.167892073066994" rx="1.49625" ry="1.49625" width="8.977499999999793" height="14.96250000000002" fill="#517ce1" stroke="#000000" fill-opacity="1" stroke-opacity="1" stroke-width="0.7" stroke-dasharray="0,0" stroke-linejoin="round"></rect><path d="M 169.58750000000032 91.35289207306761 L 189.53749999999997 91.35289207306761" fill="none" stroke="#000000" fill-opacity="1" stroke-opacity="1" stroke-width="3.6750000000000003" stroke-dasharray="0,0" stroke-linecap="round" stroke-linejoin="round"></path><path d="M 169.58750000000032 128.2603920730681 L 189.53749999999997 128.2603920730681" fill="none" stroke="#000000" fill-opacity="1" stroke-opacity="1" stroke-width="3.6750000000000003" stroke-dasharray="0,0" stroke-linecap="round" stroke-linejoin="round"></path><path d="M 169.58750000000032 128.2603920730681 C 169.58750000000032 112.7991420730672 177.3181249999999 114.29539207306723 177.5675 109.80664207306725 C 177.3181249999999 105.31789207306721 169.58750000000032 106.81414207306725 169.58750000000032 91.35289207306761" stroke="#000000" fill="none" fill-opacity="1" stroke-opacity="1" stroke-width="1.5750000000000002" stroke-dasharray="0,0" stroke-linecap="round"></path><path d="M 189.53749999999997 128.2603920730681 C 189.53749999999997 112.7991420730672 181.806875 114.29539207306723 181.5575 109.80664207306725 C 181.806875 105.31789207306721 189.53749999999997 106.81414207306725 189.53749999999997 91.35289207306761" stroke="#000000" fill="none" fill-opacity="1" stroke-opacity="1" stroke-width="1.5750000000000002" stroke-dasharray="0,0" stroke-linecap="round"></path><path d="M 171.8439369796124 125.28697830389352 C 171.65145639194475 120.49635977102069 175.23192911859826 118.17495437681653 179.40258965733756 118.29299193923329 C 183.57325019607674 118.41102950165056 187.42914390170415 119.98486366721288 187.07854683761684 125.22454137824558" stroke="#000000" fill="#000000" fill-opacity="1" stroke-opacity="1" stroke-width="0" stroke-dasharray="0,0" stroke-linecap="round"></path><path d="M 172.91567251549975 99.43515892681529 C 173.3321259497137 100.76260424837295 173.8530600427648 102.40238964559086 176.11752559130423 104.04217504280925 C 178.3819911398432 105.68196044002676 179.44915306501684 108.28479440386482 179.50120974429353 108.28479440386482 C 179.55326642357056 108.28479440386482 180.80262672621245 105.76004545894196 182.72872385945266 104.27643009955432 C 184.65482099269263 102.79281474016679 185.51375620075908 101.41331273933235 186.08637967280367 99.46118726645366" stroke="#000000" fill="#000000" fill-opacity="1" stroke-opacity="1" stroke-width="0" stroke-dasharray="0,0" stroke-linecap="round"></path><path d="M 19.925390877246755 99.79453295031144 L 30.232012419419576 124.67691845967288" fill="none" stroke="#000000" fill-opacity="1" stroke-opacity="1" stroke-width="2.625" stroke-dasharray="0,0" stroke-linecap="round" stroke-linejoin="round"></path><path d="M 19.925390877246755 99.79453295031144 L 44.8077763866075 110.10115449248431" fill="none" stroke="#000000" fill-opacity="1" stroke-opacity="1" stroke-width="2.625" stroke-dasharray="0,0" stroke-linecap="round" stroke-linejoin="round"></path><path d="M 34.48693664180918 116.89529916611484 L 45.05641380502091 127.46477632932728" fill="none" stroke="#000000" fill-opacity="1" stroke-opacity="1" stroke-width="2.625" stroke-dasharray="0,0" stroke-linecap="round" stroke-linejoin="round"></path><path d="M 44.8077763866075 110.10115449248431 L 37.026157093050145 114.35607871487386" fill="none" stroke="#000000" fill-opacity="1" stroke-opacity="1" stroke-width="2.625" stroke-dasharray="0,0" stroke-linecap="round" stroke-linejoin="round"></path><path d="M 34.48693664180918 116.89529916611484 L 30.232012419419576 124.67691845967288" fill="none" stroke="#000000" fill-opacity="1" stroke-opacity="1" stroke-width="2.625" stroke-dasharray="0,0" stroke-linecap="round" stroke-linejoin="round"></path><path d="M 16.22236105252074 96.09150312558495 L 12.34299647423586 92.21213854730092" fill="none" stroke="#000000" fill-opacity="1" stroke-opacity="1" stroke-width="2.625" stroke-dasharray="0,0" stroke-linecap="round" stroke-linejoin="round"></path><path d="M 19.925390877246755 95.2880604147276 L 19.925390877246755 89.80181041472804" fill="none" stroke="#000000" fill-opacity="1" stroke-opacity="1" stroke-width="2.625" stroke-dasharray="0,0" stroke-linecap="round" stroke-linejoin="round"></path><path d="M 15.418918341662959 99.79453295031144 L 9.932668341662975 99.79453295031144" fill="none" stroke="#000000" fill-opacity="1" stroke-opacity="1" stroke-width="2.625" stroke-dasharray="0,0" stroke-linecap="round" stroke-linejoin="round"></path><path d="M 47.59563425626189 124.92555587808629 A 1.7955000000001065 1.7955000000001065 315 0 1 45.05641380502085 127.46477632932734" stroke="#000000" fill="none" fill-opacity="1" stroke-opacity="1" stroke-width="2.625" stroke-dasharray="0,0" stroke-linecap="round"></path><path d="M 47.59563425626183 124.92555587808634 L 37.026157093050145 114.35607871487386" fill="none" stroke="#000000" fill-opacity="1" stroke-opacity="1" stroke-width="2.625" stroke-dasharray="0,0" stroke-linecap="round" stroke-linejoin="round"></path><path d="M 29.93750000000223 142.22539207306866 L 29.93750000000223 177.13789207306857" fill="none" stroke="#000000" fill-opacity="1" stroke-opacity="1" stroke-width="2.625" stroke-dasharray="0,0" stroke-linecap="round" stroke-linejoin="round"></path><path d="M 47.393750000002655 159.68164207306862 L 12.481250000002433 159.68164207306862" fill="none" stroke="#000000" fill-opacity="1" stroke-opacity="1" stroke-width="2.625" stroke-dasharray="0,0" stroke-linecap="round" stroke-linejoin="round"></path><path d="M 42.19232007117047 154.48021214423622 L 47.393750000002655 159.68164207306862 L 42.19232007117047 164.88307200190062" fill="none" stroke="#000000" fill-opacity="1" stroke-opacity="1" stroke-width="2.625" stroke-dasharray="0,0" stroke-linecap="round" stroke-linejoin="round"></path><path d="M 35.13892992883446 171.93646214423669 L 29.93750000000223 177.13789207306857 L 24.73607007117029 171.93646214423623" fill="none" stroke="#000000" fill-opacity="1" stroke-opacity="1" stroke-width="2.625" stroke-dasharray="0,0" stroke-linecap="round" stroke-linejoin="round"></path><path d="M 17.682679928834617 164.88307200190062 L 12.481250000002433 159.68164207306862 L 17.682679928834617 154.48021214423622" fill="none" stroke="#000000" fill-opacity="1" stroke-opacity="1" stroke-width="2.625" stroke-dasharray="0,0" stroke-linecap="round" stroke-linejoin="round"></path><path d="M 24.73607007117029 147.42682200190015 L 29.93750000000223 142.22539207306866 L 35.138929928834855 147.4268220019006" fill="none" stroke="#000000" fill-opacity="1" stroke-opacity="1" stroke-width="2.625" stroke-dasharray="0,0" stroke-linecap="round" stroke-linejoin="round"></path><path d="M 75.21271457216156 127.34856700511854 L 84.41228542783867 125.72643445232352" fill="none" stroke="#000000" fill-opacity="1" stroke-opacity="1" stroke-width="2.2049999999999996" stroke-dasharray="0,0" stroke-linecap="round" stroke-linejoin="round"></path><path d="M 75.21271457216156 123.65986920808403 L 84.41228542783867 122.03773665528892" fill="none" stroke="#000000" fill-opacity="1" stroke-opacity="1" stroke-width="2.2049999999999996" stroke-dasharray="0,0" stroke-linecap="round" stroke-linejoin="round"></path><path d="M 75.14175546760853 118.39387262801593 L 84.4832445323917 118.39387262801593" fill="none" stroke="#000000" fill-opacity="1" stroke-opacity="1" stroke-width="2.96352" stroke-dasharray="0,0" stroke-linecap="round" stroke-linejoin="round"></path><path d="M 78.64481386690241 130.22619852575556 L 80.9801861330981 130.22619852575556" fill="none" stroke="#000000" fill-opacity="1" stroke-opacity="1" stroke-width="2.94" stroke-dasharray="0,0" stroke-linecap="round" stroke-linejoin="round"></path><path d="M 75.14175546760853 118.39387262801593 C 75.14175546760853 111.09569445288403 70.31933649379462 110.94811875268604 71.9832268555189 103.16175678698471 C 73.64711721724294 95.37539482128335 85.9778827827574 95.37539482128335 87.64177314448179 103.16175678698471 C 89.30566350620583 110.94811875268604 84.50148423339428 111.09569445288403 84.4832445323917 118.39387262801593" stroke="#000000" fill="none" fill-opacity="1" stroke-opacity="1" stroke-width="2.94" stroke-dasharray="0,0" stroke-linecap="round"></path><path d="M 79.81250000000026 92.64669608048226 L 79.81250000000026 88.76951460794916" fill="none" stroke="#000000" fill-opacity="1" stroke-opacity="1" stroke-width="2.94" stroke-dasharray="0,0" stroke-linecap="round" stroke-linejoin="round"></path><path d="M 89.86687365670898 96.81135401025793 L 92.60845496782801 94.0697726991389" fill="none" stroke="#000000" fill-opacity="1" stroke-opacity="1" stroke-width="2.94" stroke-dasharray="0,0" stroke-linecap="round" stroke-linejoin="round"></path><path d="M 94.03153158648453 106.86572766696682 L 97.90871305901769 106.86572766696682" fill="none" stroke="#000000" fill-opacity="1" stroke-opacity="1" stroke-width="2.94" stroke-dasharray="0,0" stroke-linecap="round" stroke-linejoin="round"></path><path d="M 89.86687365670898 116.92010132367561 L 92.60845496782801 119.66168263479459" fill="none" stroke="#000000" fill-opacity="1" stroke-opacity="1" stroke-width="2.94" stroke-dasharray="0,0" stroke-linecap="round" stroke-linejoin="round"></path><path d="M 69.75812634329137 96.81135401025793 L 67.01654503217233 94.0697726991389" fill="none" stroke="#000000" fill-opacity="1" stroke-opacity="1" stroke-width="2.94" stroke-dasharray="0,0" stroke-linecap="round" stroke-linejoin="round"></path><path d="M 65.5934684135157 106.86572766696682 L 61.716286940982656 106.86572766696682" fill="none" stroke="#000000" fill-opacity="1" stroke-opacity="1" stroke-width="2.94" stroke-dasharray="0,0" stroke-linecap="round" stroke-linejoin="round"></path><path d="M 69.75812634329137 116.92010132367561 L 67.01654503217244 119.66168263479459" fill="none" stroke="#000000" fill-opacity="1" stroke-opacity="1" stroke-width="2.94" stroke-dasharray="0,0" stroke-linecap="round" stroke-linejoin="round"></path><path d="M 136.93557979108064 112.80889502369506 A 7.845265032962241 7.845265032962241 742.5 1 1 136.93857841949128 112.80164544398563" stroke="#000000" fill="none" fill-opacity="1" stroke-opacity="1" stroke-width="2.625" stroke-dasharray="0,0" stroke-linecap="round"></path><path d="M 132.21724157265635 93.84638368463328 C 134.23758041219742 88.96885425762386 134.23758041219742 88.96885425762386 137.72111438350782 90.41178127352802 C 141.20464835481823 91.85470828943227 141.20464835481823 91.85470828943227 139.18430951527694 96.7322377164416" stroke="#000000" fill="none" fill-opacity="1" stroke-opacity="1" stroke-width="2.625" stroke-dasharray="0,0" stroke-linecap="round"></path><path d="M 142.7619043566258 100.30983255779054 C 147.63943378363524 98.28949371824939 147.63943378363524 98.28949371824939 149.08236079953952 101.7730276895598 C 150.5252878154438 105.25656166087029 150.5252878154438 105.25656166087029 145.64775838843434 107.27690050041141" stroke="#000000" fill="none" fill-opacity="1" stroke-opacity="1" stroke-width="2.625" stroke-dasharray="0,0" stroke-linecap="round"></path><path d="M 145.64775838843434 112.33638364572298 C 150.5252878154438 114.35672248526421 150.5252878154438 114.35672248526421 149.08236079953952 117.84025645657461 C 147.63943378363524 121.32379042788504 147.63943378363524 121.32379042788504 142.76190435662602 119.30345158834392" stroke="#000000" fill="none" fill-opacity="1" stroke-opacity="1" stroke-width="2.625" stroke-dasharray="0,0" stroke-linecap="round"></path><path d="M 139.18430951527694 122.88104642969277 C 141.20464835481823 127.75857585670212 141.20464835481823 127.75857585670212 137.72111438350782 129.20150287260643 C 134.23758041219742 130.6444298885106 134.23758041219742 130.6444298885106 132.21724157265635 125.76690046150121" stroke="#000000" fill="none" fill-opacity="1" stroke-opacity="1" stroke-width="2.625" stroke-dasharray="0,0" stroke-linecap="round"></path><path d="M 127.15775842734448 125.76690046150121 C 125.13741958780318 130.6444298885106 125.13741958780318 130.6444298885106 121.65388561649277 129.20150287260637 C 118.17035164518236 127.75857585670212 118.17035164518236 127.75857585670212 120.19069048472366 122.88104642969283" stroke="#000000" fill="none" fill-opacity="1" stroke-opacity="1" stroke-width="2.625" stroke-dasharray="0,0" stroke-linecap="round"></path><path d="M 116.6130956433748 119.30345158834386 C 111.73556621636547 121.32379042788499 111.73556621636547 121.32379042788499 110.2926392004612 117.84025645657461 C 108.84971218455703 114.35672248526416 108.84971218455703 114.35672248526416 113.72724161156648 112.33638364572298" stroke="#000000" fill="none" fill-opacity="1" stroke-opacity="1" stroke-width="2.625" stroke-dasharray="0,0" stroke-linecap="round"></path><path d="M 113.72724161156648 107.27690050041147 C 108.84971218455703 105.25656166087023 108.84971218455703 105.25656166087023 110.2926392004612 101.7730276895598 C 111.73556621636547 98.2894937182493 111.73556621636547 98.2894937182493 116.6130956433748 100.30983255779049" stroke="#000000" fill="none" fill-opacity="1" stroke-opacity="1" stroke-width="2.625" stroke-dasharray="0,0" stroke-linecap="round"></path><path d="M 120.19069048472366 96.73223771644163 C 118.17035164518259 91.85470828943221 118.17035164518259 91.85470828943221 121.65388561649289 90.41178127352796 C 125.13741958780341 88.96885425762386 125.13741958780341 88.96885425762386 127.15775842734448 93.8463836846332" stroke="#000000" fill="none" fill-opacity="1" stroke-opacity="1" stroke-width="2.625" stroke-dasharray="0,0" stroke-linecap="round"></path><path d="M 116.65575841733985 100.25137381033592 A 16.1595 16.1595 652.5 0 1 120.24631752813211 96.6920123115036" stroke="#000000" fill="none" fill-opacity="1" stroke-opacity="1" stroke-width="2.625" stroke-dasharray="0,0" stroke-linecap="round"></path><path d="M 127.22926214086448 93.83521424466348 A 16.1595 16.1595 697.5 0 1 132.28501948887546 93.85727428763718" stroke="#000000" fill="none" fill-opacity="1" stroke-opacity="1" stroke-width="2.625" stroke-dasharray="0,0" stroke-linecap="round"></path><path d="M 139.24276826273177 96.77490049040684 A 16.1595 16.1595 742.5 0 1 142.80212976156406 100.36545960119909" stroke="#000000" fill="none" fill-opacity="1" stroke-opacity="1" stroke-width="2.625" stroke-dasharray="0,0" stroke-linecap="round"></path><path d="M 145.65892782840402 107.34840421393125 A 16.1595 16.1595 787.5 0 1 145.6368677854303 112.40416156194223" stroke="#000000" fill="none" fill-opacity="1" stroke-opacity="1" stroke-width="2.625" stroke-dasharray="0,0" stroke-linecap="round"></path><path d="M 142.71924158266066 119.3619103357985 A 16.1595 16.1595 832.5 0 1 139.12868247186842 122.92127183463082" stroke="#000000" fill="none" fill-opacity="1" stroke-opacity="1" stroke-width="2.625" stroke-dasharray="0,0" stroke-linecap="round"></path><path d="M 132.14573785913643 125.77806990147103 A 16.1595 16.1595 877.5 0 1 127.08998051112545 125.75600985849732" stroke="#000000" fill="none" fill-opacity="1" stroke-opacity="1" stroke-width="2.625" stroke-dasharray="0,0" stroke-linecap="round"></path><path d="M 120.13223173726917 122.8383836557276 A 16.1595 16.1595 922.4999999999999 0 1 116.57287023843685 119.24782454493534" stroke="#000000" fill="none" fill-opacity="1" stroke-opacity="1" stroke-width="2.625" stroke-dasharray="0,0" stroke-linecap="round"></path><path d="M 113.71607217159647 112.26487993220317 A 16.159499999999973 16.159499999999973 967.5 0 1 113.73813221457017 107.20912258419219" stroke="#000000" fill="none" fill-opacity="1" stroke-opacity="1" stroke-width="2.625" stroke-dasharray="0,0" stroke-linecap="round"></path><path d="M 165.95669964067162 151.8263295730679 A 15.710625 15.710625 450 0 1 195.2731250000025 159.6816420730679" stroke="#000000" fill="none" fill-opacity="1" stroke-opacity="1" stroke-width="2.625" stroke-dasharray="0,0" stroke-linecap="round"></path><path d="M 180.90912500000238 159.6816420730677 A 1.3466250000000002 1.3466250000000002 0 1 1 180.90912432668995 159.68029544829216" stroke="#000000" fill="#000000" fill-opacity="1" stroke-opacity="1" stroke-width="2.625" stroke-dasharray="0,0" stroke-linecap="round"></path><path d="M 199.204209068206 157.10787832852068 L 195.0144953236582 163.99084207306785 L 190.8247815791106 157.10787832851977 L 195.0144953236582 159.6816420730677 L 199.204209068206 157.10787832852068" fill="#000000" stroke="#000000" fill-opacity="1" stroke-opacity="1" stroke-width="2.625" stroke-dasharray="0,0" stroke-linecap="round" stroke-linejoin="round"></path><path d="M 159.92079093179973 162.2554058176148 L 164.11050467634755 155.37244207306802 L 168.30021842089502 162.25540581761524 L 164.11050467634755 159.6816420730677 L 159.92079093179973 162.2554058176148" fill="#000000" stroke="#000000" fill-opacity="1" stroke-opacity="1" stroke-width="2.625" stroke-dasharray="0,0" stroke-linecap="round" stroke-linejoin="round"></path><path d="M 193.1683003593334 167.5369545730679 A 15.710625 15.710625 -90 0 1 163.8518750000025 159.6816420730679" stroke="#000000" fill="none" fill-opacity="1" stroke-opacity="1" stroke-width="2.625" stroke-dasharray="0,0" stroke-linecap="round"></path><path d="M109.54 241.86L109.54 255.57L116.03 255.57L116.03 258.2L106.51 258.2L106.51 241.86ZM121.06 252.16Q121.06 255.91 123.97 255.91Q126.89 255.91 126.89 252.16Q126.89 248.49 123.97 248.49Q121.06 248.49 121.06 252.16ZM118.03 252.2Q118.03 246.17 123.97 246.17Q129.91 246.17 129.91 252.2Q129.91 258.22 123.97 258.22Q118.05 258.22 118.03 252.2ZM139.88 248.92Q139.13 248.65 137.76 248.65Q134.62 248.65 134.62 252.11Q134.62 255.46 137.33 255.46Q138.63 255.46 139.88 254.84ZM142.9 257.29Q142.9 262.54 136.59 262.54Q134.37 262.54 132.66 261.97L132.66 259.57Q134.4 260.14 136.61 260.14Q139.88 260.14 139.88 257.4Q138.53 257.97 136.98 257.97Q131.63 257.97 131.63 252.13Q131.63 246.2 137.85 246.2Q139.95 246.2 142.9 246.69ZM148.22 252.16Q148.22 255.91 151.13 255.91Q154.05 255.91 154.05 252.16Q154.05 248.49 151.13 248.49Q148.22 248.49 148.22 252.16ZM145.19 252.2Q145.19 246.17 151.13 246.17Q157.07 246.17 157.07 252.2Q157.07 258.22 151.13 258.22Q145.21 258.22 145.19 252.2ZM159.36 257.63L159.36 255.12Q161.36 255.91 163.97 255.91Q165.93 255.91 165.93 254.66Q165.93 253.46 164.61 253.46L162.44 253.46Q158.79 253.46 158.79 249.86Q158.79 246.09 164.12 246.09Q166.38 246.09 168.38 246.77L168.38 249.29Q166.38 248.49 164.04 248.49Q161.59 248.49 161.59 249.74Q161.59 250.94 163.01 250.94L164.96 250.94Q168.96 250.94 168.96 254.54Q168.96 258.31 163.86 258.31Q161.36 258.31 159.36 257.63ZM175.64 254.46Q175.64 250.89 180.85 250.89Q182.07 250.89 183.3 251.12L183.3 250.21Q183.3 248.6 180.98 248.6Q179.01 248.6 176.61 249.17L176.61 246.77Q179.01 246.2 180.98 246.2Q186.32 246.2 186.32 250.16L186.32 258.2L184.56 258.2L183.49 257.13Q181.92 258.2 180.04 258.2Q175.64 258.2 175.64 254.46ZM183.3 253.17Q182.15 252.94 180.85 252.94Q178.67 252.94 178.67 254.43Q178.67 256.03 180.5 256.03Q182 256.03 183.3 255.09L183.3 253.17ZM189.18 258.2L189.18 246.2L191.52 246.2L191.9 247.96Q193.62 246.2 195.83 246.2Q200.09 246.2 200.09 250.64L200.09 258.2L197.06 258.2L197.06 250.64Q197.06 248.65 195.09 248.65Q193.61 248.65 192.21 249.82L192.21 258.2ZM210.55 249.33Q209.61 248.72 208.19 248.72Q205.37 248.72 205.37 251.88Q205.37 255.64 208.31 255.64Q209.49 255.64 210.55 255.31ZM213.57 257.48Q210.82 258.2 208.19 258.2Q202.38 258.2 202.38 251.96Q202.38 246.2 208.07 246.2Q209.28 246.2 210.55 246.77L210.55 241.86L213.57 241.86ZM224.6 241.86L224.6 244.26L221.57 244.26L221.57 241.86ZM224.6 246.2L224.6 258.2L221.57 258.2L221.57 246.2ZM236.31 257.86Q234.83 258.2 233.23 258.2Q226.83 258.2 226.83 251.97Q226.83 246.2 233.23 246.2Q234.83 246.2 236.31 246.55L236.31 248.95Q234.83 248.6 233.45 248.6Q229.86 248.6 229.86 251.97Q229.86 255.8 233.45 255.8Q234.83 255.8 236.31 255.46ZM240.77 252.16Q240.77 255.91 243.68 255.91Q246.59 255.91 246.59 252.16Q246.59 248.49 243.68 248.49Q240.77 248.49 240.77 252.16ZM237.74 252.2Q237.74 246.17 243.68 246.17Q249.62 246.17 249.62 252.2Q249.62 258.22 243.68 258.22Q237.76 258.22 237.74 252.2ZM251.91 258.2L251.91 246.2L254.25 246.2L254.63 247.96Q256.35 246.2 258.56 246.2Q262.82 246.2 262.82 250.64L262.82 258.2L259.79 258.2L259.79 250.64Q259.79 248.65 257.81 248.65Q256.34 248.65 254.93 249.82L254.93 258.2ZM265.68 257.63L265.68 255.12Q267.67 255.91 270.29 255.91Q272.24 255.91 272.24 254.66Q272.24 253.46 270.93 253.46L268.76 253.46Q265.1 253.46 265.1 249.86Q265.1 246.09 270.44 246.09Q272.7 246.09 274.7 246.77L274.7 249.29Q272.7 248.49 270.36 248.49Q267.9 248.49 267.9 249.74Q267.9 250.94 269.33 250.94L271.27 250.94Q275.27 250.94 275.27 254.54Q275.27 258.31 270.18 258.31Q267.67 258.31 265.68 257.63Z Z" fill="#000000" fill-opacity="1" transform="rotate(0 104.7500000000002 258.18552296289363) translate(-84.37939453125, 6.741210937500001)"></path><path d="M104.87 274.6L106.6 265.94L107.96 265.94L107.61 268.51Q109.13 265.94 111.43 265.94Q113.49 265.94 112.99 268.44Q114.58 265.94 116.86 265.94Q119.02 265.94 118.46 268.72L117.29 274.6L115.76 274.6L116.93 268.72Q117.24 267.21 116.01 267.21Q114.38 267.21 112.77 269.95L111.84 274.6L110.31 274.6L111.48 268.72Q111.79 267.21 110.58 267.21Q108.88 267.21 107.33 269.95L106.39 274.6ZM126.66 267.4Q126.25 267.21 125.09 267.21Q122.33 267.21 121.7 270.37Q121.11 273.28 122.82 273.28Q124.59 273.28 125.91 271.18ZM126.75 274.6L125.39 274.6L125.64 272.54Q124.25 274.6 122.3 274.6Q119.35 274.6 120.19 270.38Q121.08 265.94 125.41 265.94Q127.17 265.94 128.41 266.29ZM136.12 267.4Q135.71 267.21 134.56 267.21Q131.79 267.21 131.16 270.37Q130.58 273.28 132.29 273.28Q134.05 273.28 135.37 271.18ZM136.22 274.6L134.85 274.6L135.1 272.54Q133.71 274.6 131.77 274.6Q128.81 274.6 129.65 270.38Q130.55 265.94 134.88 265.94Q135.7 265.94 136.4 266.01L137.05 262.8L138.58 262.8ZM144 265.94Q147.4 265.94 146.9 268.4Q146.42 270.79 143.33 270.79L140.56 270.79Q140.05 273.36 142.49 273.36Q144.38 273.36 145.75 272.29L145.5 273.53Q144.14 274.6 142.25 274.6Q138.28 274.6 139.16 270.17Q140.01 265.94 144 265.94ZM140.82 269.52L143.58 269.52Q145.15 269.52 145.38 268.38Q145.62 267.16 143.75 267.16Q141.44 267.16 140.82 269.52ZM155.19 265.94L153.46 274.6L151.94 274.6L153.67 265.94ZM155.82 262.8L155.53 264.24L154.01 264.24L154.3 262.8ZM156.1 274.6L157.84 265.94L159.2 265.94L158.83 268.61Q160.47 265.94 162.89 265.94Q165.3 265.94 164.74 268.75L163.57 274.6L162.04 274.6L163.22 268.72Q163.52 267.21 162.01 267.21Q160.29 267.21 158.56 269.95L157.63 274.6ZM170.34 274.6L172.7 262.8L177.73 262.8Q181.1 262.8 180.54 265.55Q180.15 267.56 177.78 268.43Q180.03 268.86 179.59 271.11Q178.89 274.6 175.2 274.6ZM175.35 273.36Q177.47 273.36 177.9 271.22Q178.32 269.13 175.49 269.13L174.83 269.13L175.02 268.13Q178.5 267.68 178.89 265.69Q179.22 264.04 177.34 264.04L173.98 264.04L172.11 273.36ZM181.78 274.6L180.12 274.6L187.48 262.8L189.18 262.8L191.85 274.6L190.24 274.6L189.46 270.89L185.55 270.89L186.22 269.65L189.19 269.65L188.06 264.3ZM193.46 274.6L195.82 262.8L197.76 262.8L200.12 272.64L206.34 262.8L208.2 262.8L205.84 274.6L204.48 274.6L206.38 265.09L200.28 274.6L199.08 274.6L196.73 265.09L194.82 274.6Z Z" fill="#000000" fill-opacity="1" transform="rotate(0 104.75000000000031 274.5867216562218) translate(-51.665478515625004, 4.86865234375)"></path><path d="M 62.35625000000246 177.13789207306766 L 62.35625000000246 142.22539207306787" fill="none" stroke="#000000" fill-opacity="1" stroke-opacity="1" stroke-width="2.625" stroke-dasharray="0,0" stroke-linecap="round" stroke-linejoin="round"></path><path d="M 97.26875000000288 142.22539207306787 L 97.26875000000288 177.13789207306766" fill="none" stroke="#000000" fill-opacity="1" stroke-opacity="1" stroke-width="2.625" stroke-dasharray="0,0" stroke-linecap="round" stroke-linejoin="round"></path><path d="M 68.84000000000245 151.20289207306766 L 63.85250000000238 147.21289207306765 L 68.84000000000245 143.2228920730679 L 68.84000000000245 151.20289207306766" fill="#000000" stroke="#000000" fill-opacity="1" stroke-opacity="1" stroke-width="2.625" stroke-dasharray="0,0" stroke-linecap="round" stroke-linejoin="round"></path><path d="M 90.78500000000267 151.20289207306766 L 95.77250000000285 147.21289207306765 L 90.78500000000267 143.2228920730679 L 90.78500000000267 151.20289207306766" fill="#000000" stroke="#000000" fill-opacity="1" stroke-opacity="1" stroke-width="2.625" stroke-dasharray="0,0" stroke-linecap="round" stroke-linejoin="round"></path><path d="M 90.78500000000267 147.21289207306765 L 68.84000000000245 147.21289207306765" fill="none" stroke="#000000" fill-opacity="1" stroke-opacity="1" stroke-width="2.625" stroke-dasharray="0,0" stroke-linecap="round" stroke-linejoin="round"></path><path d="M 112.23125000000269 177.13789207306766 L 127.19375000000221 142.22539207306747 L 127.19375000000221 177.13789207306766 L 112.23125000000269 177.13789207306766" fill="#000000" stroke="#000000" fill-opacity="1" stroke-opacity="1" stroke-width="2.625" stroke-dasharray="0,0" stroke-linecap="round" stroke-linejoin="round"></path><path d="M 147.1437500000028 177.13789207306766 L 132.18125000000236 142.22539207306747 L 132.18125000000236 177.13789207306766 L 147.1437500000028 177.13789207306766" fill="none" stroke="#000000" fill-opacity="1" stroke-opacity="1" stroke-width="2.625" stroke-dasharray="0,0" stroke-linecap="round" stroke-linejoin="round"></path><rect transform="rotate(0 5 84.86914207306711) translate(5 84.86914207306711) scale(1, 1) translate(-5 -84.86914207306711)" x="5" y="84.86914207306711" rx="0" ry="0" width="49.87500000000003" height="49.87500000000003" fill="none" stroke="#000000" fill-opacity="1" stroke-opacity="1" stroke-width="0.3" stroke-dasharray="0,0" stroke-linejoin="round"></rect><rect transform="rotate(0 5 134.74414207306714) translate(5 134.74414207306714) scale(1, 1) translate(-5 -134.74414207306714)" x="5" y="134.74414207306714" rx="0" ry="0" width="49.87500000000002" height="49.87500000000006" fill="none" stroke="#000000" fill-opacity="1" stroke-opacity="1" stroke-width="0.3" stroke-dasharray="0,0" stroke-linejoin="round"></rect><rect transform="rotate(0 54.87500000000003 134.74414207306714) translate(54.87500000000003 134.74414207306714) scale(1, 1) translate(-54.87500000000003 -134.74414207306714)" x="54.87500000000003" y="134.74414207306714" rx="0" ry="0" width="49.87500000000017" height="49.87500000000006" fill="none" stroke="#000000" fill-opacity="1" stroke-opacity="1" stroke-width="0.3" stroke-dasharray="0,0" stroke-linejoin="round"></rect><rect transform="rotate(0 54.87500000000003 84.86914207306711) translate(54.87500000000003 84.86914207306711) scale(1, 1) translate(-54.87500000000003 -84.86914207306711)" x="54.87500000000003" y="84.86914207306711" rx="0" ry="0" width="49.87500000000017" height="49.87500000000003" fill="none" stroke="#000000" fill-opacity="1" stroke-opacity="1" stroke-width="0.3" stroke-dasharray="0,0" stroke-linejoin="round"></rect><rect transform="rotate(180 204.50000000000017 84.86914207306708) translate(204.50000000000017 84.86914207306708) scale(1, -1) translate(-204.50000000000017 -84.86914207306708)" x="204.50000000000017" y="84.86914207306708" rx="0" ry="0" width="49.87500000000006" height="49.87500000000005" fill="none" stroke="#000000" fill-opacity="1" stroke-opacity="1" stroke-width="0.3" stroke-dasharray="0,0" stroke-linejoin="round"></rect><rect transform="rotate(-180 204.50000000000017 134.74414207306714) translate(204.50000000000017 134.74414207306714) scale(1, -1) translate(-204.50000000000017 -134.74414207306714)" x="204.50000000000017" y="134.74414207306714" rx="0" ry="0" width="49.87500000000003" height="49.87500000000006" fill="none" stroke="#000000" fill-opacity="1" stroke-opacity="1" stroke-width="0.3" stroke-dasharray="0,0" stroke-linejoin="round"></rect><rect transform="rotate(-180 154.6250000000001 134.74414207306714) translate(154.6250000000001 134.74414207306714) scale(1, -1) translate(-154.6250000000001 -134.74414207306714)" x="154.6250000000001" y="134.74414207306714" rx="0" ry="0" width="49.874999999999886" height="49.875000000000085" fill="none" stroke="#000000" fill-opacity="1" stroke-opacity="1" stroke-width="0.3" stroke-dasharray="0,0" stroke-linejoin="round"></rect><rect transform="rotate(-180 154.6250000000001 84.86914207306711) translate(154.6250000000001 84.86914207306711) scale(1, -1) translate(-154.6250000000001 -84.86914207306711)" x="154.6250000000001" y="84.86914207306711" rx="0" ry="0" width="49.874999999999915" height="49.87500000000003" fill="none" stroke="#000000" fill-opacity="1" stroke-opacity="1" stroke-width="0.3" stroke-dasharray="0,0" stroke-linejoin="round"></rect><rect transform="rotate(0 54.87500000000003 184.6191420730672) translate(54.87500000000003 184.6191420730672) scale(1, 1) translate(-54.87500000000003 -184.6191420730672)" x="54.87500000000003" y="184.6191420730672" rx="0" ry="0" width="49.87500000000017" height="49.874999999999886" fill="none" stroke="#000000" fill-opacity="1" stroke-opacity="1" stroke-width="0.3" stroke-dasharray="0,0" stroke-linejoin="round"></rect><rect transform="rotate(-180 154.6250000000001 184.6191420730672) translate(154.6250000000001 184.6191420730672) scale(1, -1) translate(-154.6250000000001 -184.6191420730672)" x="154.6250000000001" y="184.6191420730672" rx="0" ry="0" width="49.874999999999886" height="49.874999999999915" fill="none" stroke="#000000" fill-opacity="1" stroke-opacity="1" stroke-width="0.3" stroke-dasharray="0,0" stroke-linejoin="round"></rect><path d="M 181.2249999999998 67.98525042194098 L 161.27499999999986 67.98525042194098" fill="none" stroke="#000000" fill-opacity="1" stroke-opacity="1" stroke-width="0.7" stroke-dasharray="0,0" stroke-linecap="round" stroke-linejoin="round"></path><path d="M 191.76559603006405 66.78403079881116 C 189.0539665133279 64.74890514374522 191.0403647373069 61.37987023610468 191.4585596284865 60.93387845733842 C 191.876754519666 60.48788667857228 193.56719664571887 64.56392163903763 192.90628936114848 65.1527647642771 C 192.24538207657798 65.74160788951656 192.17200832443308 65.88362186649454 191.76559603006405 66.78403079881116" stroke="#000000" fill="#000000" fill-opacity="1" stroke-opacity="1" stroke-width="0" stroke-dasharray="0,0" stroke-linecap="round"></path><path d="M 192.26385223437325 67.15024130182434 C 193.3513131601938 63.39289572791819 198.5155347394405 63.89495912898303 198.44113652025584 64.29305830979456 C 198.36673830107105 64.69115749060609 195.04554646223102 69.00122206484099 192.26385223437325 67.15024130182434" stroke="#000000" fill="#000000" fill-opacity="1" stroke-opacity="1" stroke-width="0" stroke-dasharray="0,0" stroke-linecap="round"></path><path d="M 193.94783895555832 62.48080119771453 C 190.87116079855724 61.056468867752855 192.1106253954917 57.34703472949539 192.42652244915183 56.82358016105107 C 192.74241950281117 56.30012559260743 195.2463795348453 59.933559194373956 194.72293160902024 60.64737775247521 C 194.19948368319552 61.361196310576176 194.15736707611296 61.51539705171852 193.94783895555832 62.48080119771453" stroke="#000000" fill="#000000" fill-opacity="1" stroke-opacity="1" stroke-width="0" stroke-dasharray="0,0" stroke-linecap="round"></path><path d="M 194.5115566818186 62.734950175185645 C 194.79083452248636 58.83338370584947 199.94610720779718 58.24651428396781 199.9564387410265 58.651373904332374 C 199.96677027425557 59.056233524696935 197.61832173012675 63.96456942396378 194.5115566818186 62.734950175185645" stroke="#000000" fill="#000000" fill-opacity="1" stroke-opacity="1" stroke-width="0" stroke-dasharray="0,0" stroke-linecap="round"></path><path d="M 196.11906106754162 57.26761814901678 C 192.81285892794307 56.51681958744692 193.25079269701502 52.63038315711245 193.45047695752106 52.05252345974421 C 193.65016121802688 51.47466376237665 196.85734217051453 54.505446816055695 196.4944109715879 55.31279779907757 C 196.13147977266186 56.12014878209905 196.12247550590922 56.2797438958751 196.11906106754162 57.26761814901678" stroke="#000000" fill="#000000" fill-opacity="1" stroke-opacity="1" stroke-width="0" stroke-dasharray="0,0" stroke-linecap="round"></path><path d="M 196.6200423131507 51.59733672695009 C 193.22995115512146 51.553143874625874 192.84706354297936 47.66089886825833 192.92173911434696 47.05408819533213 C 192.996414685714 46.447277522406665 196.76554338073976 48.741907004654735 196.5791156723513 49.60722739299953 C 196.39268796396328 50.472547781344275 196.4171926666681 50.6305072593959 196.6200423131507 51.59733672695009" stroke="#000000" fill="#000000" fill-opacity="1" stroke-opacity="1" stroke-width="0" stroke-dasharray="0,0" stroke-linecap="round"></path><path d="M 197.23839971784633 51.59920694291142 C 195.90054720283098 47.92356173764412 200.36706502034866 45.28320745004433 200.54177856054702 45.64857470590047 C 200.71649210074503 46.01394196175656 200.57646559518815 51.45336881044156 197.23839971784633 51.59920694291142" stroke="#000000" fill="#000000" fill-opacity="1" stroke-opacity="1" stroke-width="0" stroke-dasharray="0,0" stroke-linecap="round"></path><path d="M 196.22333788539942 46.1254845908675 C 192.89868790215797 46.78984409962479 191.71184473288616 43.063240095349414 191.6582222293785 42.45420786233238 C 191.60459972587051 41.84517562931619 195.76964973816888 43.30257536018027 195.76793747817402 44.18774863875663 C 195.7662252181794 45.07292191733299 195.82315948220088 45.22228779945229 196.22333788539942 46.1254845908675" stroke="#000000" fill="#000000" fill-opacity="1" stroke-opacity="1" stroke-width="0" stroke-dasharray="0,0" stroke-linecap="round"></path><path d="M 196.82846662229127 45.998250203072274 C 194.75289984412387 42.68279554702495 198.56995066473024 39.16834321256985 198.81707559317107 39.489197264318676 C 199.06420052161167 39.81005131606773 200.06257393337233 45.15890375328681 196.82846662229127 45.998250203072274" stroke="#000000" fill="#000000" fill-opacity="1" stroke-opacity="1" stroke-width="0" stroke-dasharray="0,0" stroke-linecap="round"></path><path d="M 194.69328697772193 41.21316498191918 C 191.58052574286882 42.55681246646974 189.6420062949656 39.160002718599145 189.4624477353123 38.575576198503285 C 189.28288917565857 37.99114967840828 193.6603941339418 38.54712262799697 193.8434727457148 39.413157781354556 C 194.02655135748824 40.2791929347122 194.11340728429246 40.4133858001708 194.69328697772193 41.21316498191918" stroke="#000000" fill="#000000" fill-opacity="1" stroke-opacity="1" stroke-width="0" stroke-dasharray="0,0" stroke-linecap="round"></path><path d="M 195.25853171897649 40.96243054045935 C 192.53667736017707 38.15320896208189 195.536123835939 33.919466761936945 195.84477454170752 34.18167430303615 C 196.1534252474749 34.44388184413586 198.24622120617272 39.466548161910936 195.25853171897649 40.96243054045935" stroke="#000000" fill="#000000" fill-opacity="1" stroke-opacity="1" stroke-width="0" stroke-dasharray="0,0" stroke-linecap="round"></path><path d="M 192.89753735126516 36.843869207883955 C 186.4150033838448 37.45759850114709 184.56825910135638 30.380068139629156 185.18522132138855 30.090904458377604 C 185.80218354142107 29.80174077712614 192.71929911987678 31.318484034847824 192.89753735126516 36.843869207883955" stroke="#000000" fill="#000000" fill-opacity="1" stroke-opacity="1" stroke-width="0" stroke-dasharray="0,0" stroke-linecap="round"></path><path d="M 150.73243566388953 66.78403079881116 C 153.44406518062556 64.74890514374522 151.45766695664702 61.37987023610468 151.03947206546695 60.93387845733842 C 150.6212771742879 60.48788667857228 148.93083504823483 64.56392163903763 149.5917423328052 65.1527647642771 C 150.2526496173757 65.74160788951656 150.32602336952084 65.88362186649454 150.73243566388953 66.78403079881116" stroke="#000000" fill="#000000" fill-opacity="1" stroke-opacity="1" stroke-width="0" stroke-dasharray="0,0" stroke-linecap="round"></path><path d="M 150.23417945958067 67.15024130182434 C 149.14671853376 63.39289572791819 143.98249695451295 63.89495912898303 144.0568951736975 64.29305830979456 C 144.1312933928824 64.69115749060609 147.45248523172233 69.00122206484099 150.23417945958067 67.15024130182434" stroke="#000000" fill="#000000" fill-opacity="1" stroke-opacity="1" stroke-width="0" stroke-dasharray="0,0" stroke-linecap="round"></path><path d="M 148.55019273839514 62.48080119771453 C 151.62687089539645 61.056468867752855 150.387406298462 57.34703472949539 150.07150924480186 56.82358016105107 C 149.7556121911424 56.30012559260743 147.25165215910818 59.933559194373956 147.77510008493323 60.64737775247521 C 148.29854801075794 61.361196310576176 148.34066461784062 61.51539705171852 148.55019273839514 62.48080119771453" stroke="#000000" fill="#000000" fill-opacity="1" stroke-opacity="1" stroke-width="0" stroke-dasharray="0,0" stroke-linecap="round"></path><path d="M 147.98647501213475 62.734950175185645 C 147.70719717146733 58.83338370584947 142.5519244861564 58.24651428396781 142.5415929529271 58.651373904332374 C 142.5312614196979 59.056233524696935 144.8797099638267 63.96456942396378 147.98647501213475 62.734950175185645" stroke="#000000" fill="#000000" fill-opacity="1" stroke-opacity="1" stroke-width="0" stroke-dasharray="0,0" stroke-linecap="round"></path><path d="M 146.37897062641184 57.26761814901678 C 149.68517276601062 56.51681958744692 149.24723899693845 52.63038315711245 149.0475547364324 52.05252345974421 C 148.84787047592692 51.47466376237665 145.64068952343928 54.505446816055695 146.00362072236555 55.312797799077174 C 146.36655192129183 56.12014878209905 146.37555618804424 56.2797438958751 146.37897062641184 57.26761814901678" stroke="#000000" fill="#000000" fill-opacity="1" stroke-opacity="1" stroke-width="0" stroke-dasharray="0,0" stroke-linecap="round"></path><path d="M 145.7746225915979 57.398510587554284 C 146.31582975127185 53.52458340222219 141.3965906695122 51.874632180295265 141.30198447778218 52.26841857069891 C 141.20737828605297 52.662204961102674 142.4796366785838 57.952604799213745 145.7746225915979 57.398510587554284" stroke="#000000" fill="#000000" fill-opacity="1" stroke-opacity="1" stroke-width="0" stroke-dasharray="0,0" stroke-linecap="round"></path><path d="M 145.877989380803 51.59733672695009 C 149.2680805388319 51.553143874625874 149.6509681509741 47.66089886825833 149.57629257960662 47.05408819533213 C 149.50161700823935 46.447277522406665 145.73248831321382 48.741907004654735 145.91891602160217 49.60722739299953 C 146.10534372999018 50.472547781344275 146.08083902728572 50.6305072593959 145.877989380803 51.59733672695009" stroke="#000000" fill="#000000" fill-opacity="1" stroke-opacity="1" stroke-width="0" stroke-dasharray="0,0" stroke-linecap="round"></path><path d="M 145.25963197610713 51.59920694291142 C 146.5974844911226 47.92356173764412 142.13096667360492 45.28320745004433 141.95625313340645 45.64857470590047 C 141.78153959320878 46.01394196175656 141.92156609876554 51.45336881044156 145.25963197610713 51.59920694291142" stroke="#000000" fill="#000000" fill-opacity="1" stroke-opacity="1" stroke-width="0" stroke-dasharray="0,0" stroke-linecap="round"></path><path d="M 146.27469380855393 46.1254845908675 C 149.5993437917955 46.78984409962479 150.78618696106741 43.063240095349414 150.83980946457507 42.45420786233238 C 150.89343196808306 41.84517562931619 146.72838195578458 43.30257536018027 146.7300942157798 44.18774863875663 C 146.7318064757743 45.07292191733299 146.6748722117528 45.22228779945229 146.27469380855393 46.1254845908675" stroke="#000000" fill="#000000" fill-opacity="1" stroke-opacity="1" stroke-width="0" stroke-dasharray="0,0" stroke-linecap="round"></path><path d="M 145.6695650716622 45.998250203072274 C 147.74513184982993 42.68279554702495 143.92808102922356 39.16834321256985 143.68095610078228 39.489197264318676 C 143.43383117234214 39.81005131606773 142.43545776058124 45.15890375328681 145.6695650716622 45.998250203072274" stroke="#000000" fill="#000000" fill-opacity="1" stroke-opacity="1" stroke-width="0" stroke-dasharray="0,0" stroke-linecap="round"></path><path d="M 147.80474471623188 41.21316498191918 C 150.9175059510851 42.55681246646974 152.85602539898787 39.160002718599145 153.0355839586415 38.575576198503285 C 153.215142518295 37.99114967840828 148.83763756001156 38.54712262799697 148.65455894823867 39.413157781354556 C 148.4714803364651 40.2791929347122 148.384624409661 40.4133858001708 147.80474471623188 41.21316498191918" stroke="#000000" fill="#000000" fill-opacity="1" stroke-opacity="1" stroke-width="0" stroke-dasharray="0,0" stroke-linecap="round"></path><path d="M 147.23949997497732 40.96243054045935 C 149.96135433377663 38.15320896208189 146.9619078580148 33.919466761936945 146.65325715224617 34.18167430303615 C 146.34460644647845 34.44388184413586 144.25181048778109 39.466548161910936 147.23949997497732 40.96243054045935" stroke="#000000" fill="#000000" fill-opacity="1" stroke-opacity="1" stroke-width="0" stroke-dasharray="0,0" stroke-linecap="round"></path><path d="M 149.60049434268865 36.843869207883955 C 156.08302831010894 37.45759850114709 157.9297725925975 30.380068139629156 157.31281037256497 30.090904458377604 C 156.69584815253234 29.80174077712614 149.77873257407703 31.318484034847824 149.60049434268865 36.843869207883955" stroke="#000000" fill="#000000" fill-opacity="1" stroke-opacity="1" stroke-width="0" stroke-dasharray="0,0" stroke-linecap="round"></path><path d="M171.42 76.66L171.42 75.29Q171.42 75.15 171.38 75.05Q171.34 74.95 171.25 74.89Q171.17 74.83 171.02 74.83Q170.91 74.83 170.82 74.87Q170.74 74.91 170.7 74.99Q170.66 75.07 170.66 75.2L169.62 75.2Q169.62 74.97 169.72 74.77Q169.82 74.57 170.02 74.42Q170.21 74.27 170.48 74.19Q170.75 74.11 171.08 74.11Q171.48 74.11 171.79 74.24Q172.1 74.37 172.28 74.64Q172.46 74.9 172.46 75.3L172.46 76.66Q172.46 76.99 172.5 77.15Q172.54 77.32 172.61 77.45L172.61 77.5L171.57 77.5Q171.49 77.35 171.46 77.12Q171.42 76.9 171.42 76.66ZM171.55 75.47L171.55 76.02L171.09 76.02Q170.95 76.02 170.85 76.06Q170.75 76.1 170.69 76.17Q170.63 76.24 170.6 76.32Q170.58 76.41 170.58 76.51Q170.58 76.6 170.62 76.67Q170.67 76.74 170.74 76.78Q170.82 76.82 170.92 76.82Q171.09 76.82 171.21 76.76Q171.33 76.69 171.4 76.6Q171.46 76.5 171.46 76.42L171.69 76.84Q171.63 76.96 171.55 77.09Q171.47 77.22 171.35 77.32Q171.24 77.43 171.07 77.5Q170.91 77.56 170.67 77.56Q170.36 77.56 170.11 77.44Q169.85 77.31 169.7 77.08Q169.54 76.86 169.54 76.56Q169.54 76.3 169.64 76.1Q169.73 75.9 169.92 75.76Q170.11 75.61 170.41 75.54Q170.7 75.47 171.1 75.47Z Z" fill="#000000" fill-opacity="1" transform="rotate(1085 169.42325730961113 77.52020144638388) translate(-1.5319335937499972, 1.6119140625000001)"></path><path d="M174.94 76.66Q174.94 76.58 174.88 76.52Q174.82 76.45 174.68 76.4Q174.54 76.34 174.28 76.29Q174.04 76.24 173.83 76.15Q173.61 76.06 173.45 75.94Q173.29 75.82 173.2 75.65Q173.11 75.48 173.11 75.26Q173.11 75.05 173.2 74.86Q173.29 74.67 173.47 74.53Q173.65 74.38 173.9 74.29Q174.16 74.21 174.48 74.21Q174.93 74.21 175.26 74.35Q175.59 74.48 175.76 74.73Q175.94 74.97 175.94 75.29L174.9 75.29Q174.9 75.17 174.86 75.08Q174.82 74.99 174.73 74.94Q174.63 74.89 174.48 74.89Q174.37 74.89 174.29 74.93Q174.2 74.97 174.15 75.04Q174.09 75.11 174.09 75.21Q174.09 75.28 174.13 75.33Q174.16 75.39 174.23 75.43Q174.29 75.47 174.4 75.51Q174.5 75.55 174.65 75.57Q174.99 75.63 175.28 75.75Q175.57 75.86 175.75 76.07Q175.94 76.28 175.94 76.63Q175.94 76.86 175.83 77.04Q175.73 77.23 175.54 77.37Q175.35 77.51 175.08 77.58Q174.82 77.66 174.48 77.66Q174 77.66 173.68 77.49Q173.35 77.32 173.18 77.06Q173.01 76.8 173.01 76.53L173.98 76.53Q173.98 76.69 174.05 76.78Q174.12 76.88 174.24 76.93Q174.36 76.98 174.51 76.98Q174.65 76.98 174.74 76.94Q174.84 76.9 174.89 76.83Q174.94 76.76 174.94 76.66Z Z" fill="#000000" fill-opacity="1" transform="rotate(717.1 172.85188151428292 77.58367462219329) translate(-1.4642578125000085, 1.6119140625000001)"></path><path d="M177.44 72.47L177.44 77.2L176.4 77.2L176.4 72.47ZM179.57 73.87L178.12 75.57L177.36 76.32L176.91 75.66L177.54 74.84L178.32 73.87ZM178.46 77.2L177.57 75.68L178.33 75.14L179.64 77.2Z Z" fill="#000000" fill-opacity="1" transform="rotate(1069.5 176.1227105165534 77.20090414067496) translate(-1.6211425781249886, 1.6119140625000001)"></path><path d="M180.29 73.17L180.29 76.5L179.25 76.5L179.25 73.17ZM179.19 72.31Q179.19 72.09 179.35 71.95Q179.51 71.81 179.76 71.81Q180.02 71.81 180.18 71.95Q180.34 72.09 180.34 72.31Q180.34 72.53 180.18 72.68Q180.02 72.82 179.76 72.82Q179.51 72.82 179.35 72.68Q179.19 72.53 179.19 72.31Z Z" fill="#000000" fill-opacity="1" transform="rotate(1423 178.85600714219834 76.53260572173059) translate(-0.5752441406249886, 1.6119140625000001)"></path><path d="M183.01 72.88L183.01 75.5L181.97 75.5L181.97 72.17L182.95 72.17ZM182.89 73.72L182.64 73.73Q182.64 73.35 182.74 73.05Q182.83 72.75 183 72.54Q183.17 72.33 183.4 72.22Q183.64 72.11 183.93 72.11Q184.16 72.11 184.35 72.18Q184.54 72.25 184.68 72.4Q184.82 72.55 184.9 72.79Q184.97 73.04 184.97 73.41L184.97 75.5L183.93 75.5L183.93 73.4Q183.93 73.2 183.87 73.1Q183.82 72.99 183.71 72.95Q183.61 72.91 183.46 72.91Q183.3 72.91 183.19 72.97Q183.08 73.03 183.01 73.14Q182.95 73.25 182.92 73.4Q182.89 73.55 182.89 73.72Z Z" fill="#000000" fill-opacity="1" transform="rotate(1776 181.70418200734764 75.46771677515767) translate(-1.4996337890625, 1.6119140625000001)"></path><path d="M156.64 67.26L155.55 70.8L154.39 70.8L156.03 66.32L156.77 66.32ZM157.54 70.8L156.45 67.26L156.31 66.32L157.05 66.32L158.71 70.8ZM157.5 69.13L157.5 69.96L155.2 69.96L155.2 69.13ZM155.87 65.48Q155.87 65.31 155.96 65.17Q156.05 65.03 156.2 64.94Q156.36 64.86 156.56 64.86Q156.86 64.86 157.05 65.04Q157.25 65.23 157.25 65.48Q157.25 65.65 157.16 65.79Q157.07 65.93 156.91 66.01Q156.76 66.09 156.56 66.09Q156.26 66.09 156.06 65.91Q155.87 65.73 155.87 65.48ZM156.24 65.48Q156.24 65.61 156.32 65.71Q156.41 65.8 156.56 65.8Q156.71 65.8 156.79 65.71Q156.88 65.61 156.88 65.48Q156.88 65.35 156.79 65.25Q156.71 65.16 156.56 65.16Q156.41 65.16 156.32 65.25Q156.24 65.35 156.24 65.48Z Z" fill="#000000" fill-opacity="1" transform="rotate(1843.5 154.42214999148985 70.78424570730692) translate(-2.159472656250003, 1.6119140625000001)"></path><path d="M158.81 70.58L158.81 73.2L157.77 73.2L157.77 69.87L158.75 69.87ZM158.69 71.42L158.44 71.43Q158.44 71.05 158.54 70.75Q158.63 70.45 158.8 70.24Q158.97 70.03 159.2 69.92Q159.44 69.81 159.73 69.81Q159.96 69.81 160.15 69.88Q160.34 69.95 160.48 70.1Q160.62 70.25 160.7 70.49Q160.77 70.74 160.77 71.11L160.77 73.2L159.73 73.2L159.73 71.1Q159.73 70.9 159.67 70.8Q159.62 70.69 159.51 70.65Q159.41 70.61 159.26 70.61Q159.1 70.61 158.99 70.67Q158.88 70.73 158.81 70.84Q158.75 70.95 158.72 71.1Q158.69 71.25 158.69 71.42Z Z" fill="#000000" fill-opacity="1" transform="rotate(1474.5 157.45918387906238 73.24358725773556) translate(-1.4996337890625, 1.6119140625000001)"></path><path d="M163.08 71.77L164.03 71.77L164.03 74.97Q164.03 75.43 163.81 75.75Q163.6 76.08 163.22 76.24Q162.84 76.41 162.33 76.41Q162.11 76.41 161.88 76.35Q161.64 76.3 161.44 76.19Q161.24 76.08 161.1 75.91L161.53 75.3Q161.66 75.44 161.85 75.54Q162.04 75.64 162.3 75.64Q162.52 75.64 162.67 75.56Q162.83 75.48 162.91 75.33Q162.99 75.18 162.99 74.96L162.99 72.56ZM160.87 73.48L160.87 73.41Q160.87 73.03 160.97 72.72Q161.06 72.41 161.24 72.18Q161.41 71.96 161.67 71.83Q161.92 71.71 162.24 71.71Q162.58 71.71 162.8 71.84Q163.02 71.97 163.15 72.21Q163.28 72.44 163.36 72.75Q163.43 73.06 163.49 73.42L163.49 73.5Q163.43 73.84 163.34 74.14Q163.25 74.44 163.11 74.67Q162.96 74.9 162.75 75.03Q162.53 75.16 162.23 75.16Q161.92 75.16 161.66 75.04Q161.41 74.91 161.24 74.68Q161.06 74.45 160.97 74.15Q160.87 73.84 160.87 73.48ZM161.91 73.41L161.91 73.48Q161.91 73.66 161.94 73.82Q161.98 73.98 162.05 74.1Q162.13 74.23 162.24 74.29Q162.35 74.36 162.49 74.36Q162.72 74.36 162.86 74.27Q162.99 74.17 163.06 74Q163.12 73.82 163.11 73.58L163.11 73.34Q163.11 73.14 163.08 72.98Q163.05 72.83 162.97 72.72Q162.9 72.62 162.78 72.56Q162.67 72.51 162.5 72.51Q162.35 72.51 162.24 72.58Q162.13 72.65 162.06 72.77Q161.99 72.89 161.95 73.05Q161.91 73.22 161.91 73.41Z Z" fill="#000000" fill-opacity="1" transform="rotate(1466 160.65739266702985 75.10034370069167) translate(-1.5765380859375, 1.6119140625000001)"></path><path d="M166.44 74.08L166.44 76.7L165.4 76.7L165.4 73.37L166.37 73.37ZM166.31 74.92L166.08 74.93Q166.08 74.58 166.16 74.28Q166.24 73.99 166.4 73.77Q166.57 73.55 166.81 73.43Q167.04 73.31 167.36 73.31Q167.58 73.31 167.75 73.38Q167.93 73.44 168.06 73.58Q168.19 73.72 168.26 73.95Q168.33 74.17 168.33 74.48L168.33 76.7L167.29 76.7L167.29 74.61Q167.29 74.4 167.25 74.29Q167.2 74.18 167.11 74.15Q167.02 74.11 166.89 74.11Q166.75 74.11 166.65 74.17Q166.54 74.23 166.46 74.34Q166.39 74.45 166.35 74.6Q166.31 74.75 166.31 74.92ZM168.21 74.92L167.92 74.93Q167.92 74.58 168 74.28Q168.08 73.99 168.24 73.77Q168.4 73.55 168.63 73.43Q168.87 73.31 169.19 73.31Q169.41 73.31 169.6 73.38Q169.79 73.45 169.93 73.6Q170.07 73.75 170.15 73.99Q170.22 74.24 170.22 74.61L170.22 76.7L169.19 76.7L169.19 74.61Q169.19 74.4 169.14 74.29Q169.09 74.19 169 74.15Q168.91 74.11 168.79 74.11Q168.64 74.11 168.53 74.17Q168.43 74.23 168.35 74.34Q168.28 74.45 168.25 74.6Q168.21 74.75 168.21 74.92Z Z" fill="#000000" fill-opacity="1" transform="rotate(1815.2 165.06036567851504 76.74492462543523) translate(-2.4117187499999915, 1.6119140625000001)"></path><path d="M186.8 73.76Q186.4 73.76 186.08 73.63Q185.76 73.51 185.54 73.28Q185.32 73.06 185.2 72.76Q185.09 72.47 185.09 72.15L185.09 72.03Q185.09 71.66 185.19 71.35Q185.29 71.04 185.49 70.81Q185.69 70.57 185.99 70.44Q186.29 70.31 186.69 70.31Q187.05 70.31 187.33 70.42Q187.61 70.54 187.8 70.75Q188 70.96 188.1 71.26Q188.2 71.57 188.2 71.94L188.2 72.36L185.48 72.36L185.48 71.71L187.19 71.71L187.19 71.63Q187.19 71.47 187.13 71.35Q187.07 71.23 186.96 71.17Q186.85 71.11 186.68 71.11Q186.51 71.11 186.41 71.18Q186.3 71.26 186.24 71.39Q186.18 71.51 186.15 71.68Q186.13 71.85 186.13 72.03L186.13 72.15Q186.13 72.33 186.18 72.48Q186.23 72.63 186.33 72.74Q186.42 72.84 186.56 72.9Q186.7 72.96 186.87 72.96Q187.08 72.96 187.29 72.88Q187.5 72.8 187.64 72.62L188.11 73.18Q188.01 73.32 187.83 73.46Q187.64 73.59 187.38 73.68Q187.12 73.76 186.8 73.76Z Z" fill="#000000" fill-opacity="1" transform="rotate(2127.5 184.94616802202484 73.72337435063196) translate(-1.5580810546875057, 1.6119140625000001)"></path><path d="M189.21 68.88L189.21 71.5L188.17 71.5L188.17 68.17L189.15 68.17ZM189.09 69.72L188.84 69.73Q188.84 69.35 188.94 69.05Q189.03 68.75 189.2 68.54Q189.37 68.33 189.6 68.22Q189.84 68.11 190.13 68.11Q190.36 68.11 190.55 68.18Q190.74 68.25 190.88 68.4Q191.02 68.55 191.1 68.79Q191.17 69.04 191.17 69.41L191.17 71.5L190.13 71.5L190.13 69.4Q190.13 69.2 190.07 69.1Q190.02 68.99 189.91 68.95Q189.81 68.91 189.66 68.91Q189.5 68.91 189.39 68.97Q189.28 69.03 189.21 69.14Q189.15 69.25 189.12 69.4Q189.09 69.55 189.09 69.72Z Z" fill="#000000" fill-opacity="1" transform="rotate(2119 187.89417142229456 71.51752554099954) translate(-1.4996337890625, 1.6119140625000001)"></path><path d="M 196.72537740840193 57.398510587554284 C 196.18417024872798 53.52458340222219 201.10340933048764 51.874632180295265 201.19801552221776 52.26841857069891 C 201.29262171394686 52.662204961102674 200.02036332141614 57.952604799213745 196.72537740840193 57.398510587554284" stroke="#000000" fill="#000000" fill-opacity="1" stroke-opacity="1" stroke-width="0" stroke-dasharray="0,0" stroke-linecap="round"></path><rect transform="rotate(0 156.62 41.38525042194105) translate(156.62 41.38525042194105) scale(1, -1) translate(-156.62 -41.38525042194105)" x="156.62" y="41.38525042194105" rx="0" ry="0" width="29.259999999999877" height="2.6599999999998047" fill="none" stroke="#000000" fill-opacity="1" stroke-opacity="1" stroke-width="0.7" stroke-dasharray="0,0" stroke-linejoin="round"></rect><path d="M 184.55000000000007 41.38525042194105 L 184.54999999999984 64.66025042194093" fill="none" stroke="#000000" fill-opacity="1" stroke-opacity="1" stroke-width="0.7" stroke-dasharray="0,0" stroke-linecap="round" stroke-linejoin="round"></path><path d="M 161.2749999999998 67.98525042194093 A 3.3249999999999997 3.3249999999999997 0 0 1 157.94999999999982 64.66025042194093" stroke="#000000" fill="none" fill-opacity="1" stroke-opacity="1" stroke-width="0.7" stroke-dasharray="0,0" stroke-linecap="round"></path><path d="M 157.94999999999982 64.66025042194093 L 157.94999999999982 41.38525042194105" fill="none" stroke="#000000" fill-opacity="1" stroke-opacity="1" stroke-width="0.7" stroke-dasharray="0,0" stroke-linecap="round" stroke-linejoin="round"></path><path d="M 183.26998822292694 38.72525042194124 L 179.79769081277834 35.940362877074705 L 175.17273335740344 36.454247038782825 L 172.54933471474794 38.72525042194124" fill="none" stroke="#000000" fill-opacity="1" stroke-opacity="1" stroke-width="0.7" stroke-dasharray="0,0" stroke-linecap="butt" stroke-linejoin="round"></path><path d="M 162.39501807848387 38.72525042194124 L 165.99220721044207 35.43935796827853 L 169.41810162183106 36.381478931410555 L 168.56162801898392 38.72525042194124" fill="none" stroke="#000000" fill-opacity="1" stroke-opacity="1" stroke-width="0.7" stroke-dasharray="0,0" stroke-linecap="butt" stroke-linejoin="round"></path><path d="M 168.2132916297653 36.05015618359246 L 170.55669176737354 34.098609940860655 L 174.5088151900144 37.02898256687425" fill="none" stroke="#000000" fill-opacity="1" stroke-opacity="1" stroke-width="0.7" stroke-dasharray="0,0" stroke-linecap="butt" stroke-linejoin="round"></path><path d="M 159.74823491188624 38.72525042194124 L 161.76374573622832 35.997591079160514 L 164.6935823065993 36.62560134196295" fill="none" stroke="#000000" fill-opacity="1" stroke-opacity="1" stroke-width="0.7" stroke-dasharray="0,0" stroke-linecap="butt" stroke-linejoin="round"></path><path d="M 169.64407864698694 34.858619585639616 L 166.96467610686125 33.62018342684681 L 164.41841565845732 34.36091373910975 L 163.22866402141403 36.31159621056176" fill="none" stroke="#000000" fill-opacity="1" stroke-opacity="1" stroke-width="0.7" stroke-dasharray="0,0" stroke-linecap="butt" stroke-linejoin="round"></path><path d="M 171.5573411978179 34.84055936541867 L 173.8723389494429 33.396234793196385 L 176.05930815988347 33.83362863528461 L 178.88508574262255 36.04176344042534" fill="none" stroke="#000000" fill-opacity="1" stroke-opacity="1" stroke-width="0.7" stroke-dasharray="0,0" stroke-linecap="butt" stroke-linejoin="round"></path><path d="M 165.265 31.421275330963947 C 163.0532343458608 28.130599601634724 167.47676565413929 26.188561466292906 165.58867302255658 22.250539691850047" stroke="#000000" fill="none" fill-opacity="1" stroke-opacity="1" stroke-width="0.7" stroke-dasharray="0" stroke-linecap="round"></path><path d="M 169.255 31.421275330963947 C 167.0432343458608 28.130599601634724 171.46676565413918 26.188561466292906 169.5786730225567 22.250539691850047" stroke="#000000" fill="none" fill-opacity="1" stroke-opacity="1" stroke-width="0.7" stroke-dasharray="0" stroke-linecap="round"></path><path d="M 173.245 31.421275330963947 C 171.03323434586082 28.130599601634724 175.4567656541393 26.188561466292906 173.5686730225566 22.250539691850047" stroke="#000000" fill="none" fill-opacity="1" stroke-opacity="1" stroke-width="0.7" stroke-dasharray="0" stroke-linecap="round"></path><path d="M 177.235 31.421275330963947 C 175.02323434586083 28.130599601634724 179.4467656541392 26.188561466292906 177.55867302255672 22.250539691850047" stroke="#000000" fill="none" fill-opacity="1" stroke-opacity="1" stroke-width="0.7" stroke-dasharray="0" stroke-linecap="round"></path><rect transform="rotate(0 161.74348273519138 45.44280308115529) translate(161.74348273519138 45.44280308115529) scale(1, 1) translate(-161.74348273519138 -45.44280308115529)" x="161.74348273519138" y="45.44280308115529" rx="3.3249999999999997" ry="3.3249999999999997" width="19.013034529616903" height="18.48489468157183" fill="none" stroke="#000000" fill-opacity="1" stroke-opacity="1" stroke-width="0.7" stroke-dasharray="0,0" stroke-linejoin="round"></rect><path d="M 184.54999999999984 64.66025042194093 A 3.3249999999999997 3.3249999999999997 540 0 1 181.22499999999985 67.98525042194093" stroke="#000000" fill="none" fill-opacity="1" stroke-opacity="1" stroke-width="0.7" stroke-dasharray="0,0" stroke-linecap="round"></path><path d="M 165.23144762785694 63.92769776272712 C 163.63681632561304 61.386254124775505 163.89692627239936 60.011896755661596 164.8663687434622 58.488487158277266 C 165.83581121452528 56.96507756089298 165.79382351376864 55.0277629077402 164.95869659784933 53.94134032972099 C 164.12356968192933 52.854917751701436 168.12092561060138 55.58015974508871 169.22885986324445 58.32691341310009" stroke="#000000" fill="none" fill-opacity="1" stroke-opacity="1" stroke-width="0.7" stroke-dasharray="0,0" stroke-linecap="round"></path><path d="M 167.06014424085606 55.218089393460076 C 170.07857720990762 53.3527656485405 170.82470670787586 51.11437715463697 170.3498970273505 49.384713318439 C 169.8750873468257 47.655049482240685 174.08054451718965 52.742296059294375 173.5379048823039 55.353749302181285" stroke="#000000" fill="none" fill-opacity="1" stroke-opacity="1" stroke-width="0.7" stroke-dasharray="0,0" stroke-linecap="round"></path><path d="M 177.26855237214272 63.92769776272712 C 179.33736598014457 57.96520254506855 175.8017542084816 53.517235770573706 175.49023155793498 52.95962363699513 C 175.17870890738925 52.402011503417015 174.56381635845594 55.0147234744754 172.39325781891318 56.37132256168954" stroke="#000000" fill="none" fill-opacity="1" stroke-opacity="1" stroke-width="0.7" stroke-dasharray="0,0" stroke-linecap="round"></path><path d="M 79.81250000000037 209.5566420730677 L 70.83500000000075 209.5566420730677 L 65.1090991432383 195.73309456786686 L 98.48209501040034 209.5566420730677 L 65.1090991432383 223.38018957826725 L 70.83500000000075 209.5566420730677" fill="none" stroke="#000000" fill-opacity="1" stroke-opacity="1" stroke-width="2.1" stroke-dasharray="0,0" stroke-linecap="round" stroke-linejoin="round"></path><path d="M 176.30075279759376 212.59916610654952 L 176.30075279759376 219.42724838957926 L 159.95455946580614 205.27646547511503 L 176.30075279759376 191.12568256065086 L 176.30075279759376 197.95376484368066" fill="#000000" stroke="#000000" fill-opacity="1" stroke-opacity="1" stroke-width="1.5750000000000002" stroke-dasharray="0,0" stroke-linecap="round" stroke-linejoin="round"></path><path d="M 175.74131132629225 197.47990481326102 C 191.78004162266558 198.83323926101608 197.82335091469434 212.8193921362521 198.88673519436276 218.6676852570209 C 199.95011947403106 224.5159783777897 199.20480644070352 227.54784995689997 199.187623487449 227.51835077119134 C 199.1704405341947 227.48885158548276 191.57599229340218 209.21199786652804 175.69793076022836 212.6631029356495" stroke="#000000" fill="#000000" fill-opacity="1" stroke-opacity="1" stroke-width="0.525" stroke-dasharray="0,0" stroke-linecap="round"></path><path d="M 134.6750000000003 192.10039207306718 L 147.14375000000018 192.10039207306718 L 147.14375000000018 204.56914207306718" fill="none" stroke="#000000" fill-opacity="1" stroke-opacity="1" stroke-width="2.1" stroke-dasharray="0,0" stroke-linecap="round" stroke-linejoin="round"></path><path d="M 147.14375000000018 192.10039207306718 L 132.96356056934349 206.28058150372394" fill="none" stroke="#000000" fill-opacity="1" stroke-opacity="1" stroke-width="2.1" stroke-dasharray="0,0" stroke-linecap="round" stroke-linejoin="round"></path><path d="M 142.1562500000001 209.5566420730672 L 142.1562500000001 222.0253920730672 L 117.21875000000014 222.0253920730672 L 117.21875000000014 197.0878920730672 L 129.68750000000023 197.0878920730672" fill="none" stroke="#000000" fill-opacity="1" stroke-opacity="1" stroke-width="2.1" stroke-dasharray="0,0" stroke-linecap="round" stroke-linejoin="round"></path><rect transform="rotate(0 5 18.369142073067177) translate(5 18.369142073067177) scale(1, 1) translate(-5 -18.369142073067177)" x="5" y="18.369142073067177" rx="10" ry="10" width="199.50000000000017" height="216.1249999999996" fill="none" stroke="#000000" fill-opacity="1" stroke-opacity="1" stroke-width="0.3" stroke-dasharray="0,0" stroke-linejoin="round"></rect><path d="M107.79 52.8L105.05 52.8L111.16 38.41L114.03 38.41L120.27 52.8L117.4 52.8L115.76 48.87L110.98 48.87L111.9 46.56L114.8 46.56L112.53 41.15Z Z" fill="#000000" fill-opacity="1" transform="rotate(0 104.7500000000002 52.814660749183574) translate(-7.609833984375001, 5.9388916015625)"></path><path d="M87.64 36.7L87.64 15.34L97.65 15.34Q103.74 15.34 103.74 20.31Q103.74 23.96 99.77 25.53Q104.01 26.32 104.01 30.38Q104.01 36.7 97.33 36.7ZM97.17 33.26Q99.8 33.26 99.8 30.58Q99.8 27.25 95.87 27.25L94.68 27.25L94.68 24.69Q99.6 23.87 99.6 20.57Q99.6 18.78 97.39 18.78L91.6 18.78L91.6 33.26Z Z" fill="#000000" fill-opacity="1" transform="rotate(0 85.4149791963126 36.74806173429856) translate(-8.185214843750003, 8.812548828125001)"></path><path d="M123.74 72.6L123.74 51.24L127.85 51.24L135.09 67.45L142.19 51.24L146.15 51.24L146.15 72.6L142.49 72.6L142.49 57.72L136.69 72.6L133.31 72.6L127.4 57.72L127.4 72.6Z Z" fill="#000000" fill-opacity="1" transform="rotate(0 121.47579680841241 72.57890700597773) translate(-11.202392578125, 8.812548828125001)"></path><path d="M 75.17785019015676 51.60122475517643 L 97.30000219019561 51.60122475517643" fill="none" stroke="#000000" fill-opacity="1" stroke-opacity="1" stroke-width="1.33" stroke-dasharray="0,0" stroke-linecap="round" stroke-linejoin="round"></path><path d="M 134.32214980984338 51.60122475517859 L 112.19999780980473 51.60122475517629" fill="none" stroke="#000000" fill-opacity="1" stroke-opacity="1" stroke-width="1.33" stroke-dasharray="0,0" stroke-linecap="round" stroke-linejoin="round"></path><path d="M 104.73208268211144 22.04699226322388 L 104.7320826821094 42.12030246944555" fill="none" stroke="#000000" fill-opacity="1" stroke-opacity="1" stroke-width="1.33" stroke-dasharray="0,0" stroke-linecap="round" stroke-linejoin="round"></path><path d="M 104.76791731788884 81.1912918829104 L 104.767917317891 58.43432189804547" fill="none" stroke="#000000" fill-opacity="1" stroke-opacity="1" stroke-width="1.33" stroke-dasharray="0,0" stroke-linecap="round" stroke-linejoin="round"></path><clipPath id="clip-path-object-319"><rect transform="rotate(0 73.16250000000005 20.03164207306717) translate(73.16250000000005 20.03164207306717) scale(1, 1) translate(-73.16250000000005 -20.03164207306717)" x="73.16250000000005" y="20.03164207306717" rx="0" ry="0" width="63.17500000000004" height="63.174999999999855"></rect></clipPath><mask id="mask-object-319"><rect transform="rotate(0 73.16250000000005 20.03164207306717) translate(73.16250000000005 20.03164207306717) scale(1, 1) translate(-73.16250000000005 -20.03164207306717)" x="73.16250000000005" y="20.03164207306717" rx="0" ry="0" width="63.17500000000004" height="63.174999999999855" fill="white"></rect></mask><g clip-path="url(#clip-path-object-319)" mask="url(#mask-object-319)"><rect transform="rotate(0 73.16250000000005 20.03164207306717) translate(73.16250000000005 20.03164207306717) scale(1, 1) translate(-73.16250000000005 -20.03164207306717)" x="73.16250000000005" y="20.03164207306717" rx="0" ry="0" width="63.17500000000004" height="63.174999999999855" fill="none" fill-opacity="1"></rect><g transform="rotate(0 73.16250000000005 20.03164207306717) translate(73.16250000000005 20.03164207306717) scale(1 1)" opacity="1"><svg xmlns="http://www.w3.org/2000/svg" xmlns:xlink="http://www.w3.org/1999/xlink" version="1.1" id="Layer_1" x="0px" y="0px" width="63.17500000000004" viewBox="0 0 992 992" xml:space="preserve" height="63.174999999999855" preserveAspectRatio="none"><path fill="#000000" opacity="1.000000" stroke="none" d=" M806.034058,421.225647   C810.358459,438.923157 813.810425,456.397430 815.118896,474.136627   C816.563477,493.721588 816.763794,513.311279 814.584412,532.974060   C812.080261,555.567383 807.585144,577.630920 800.551575,599.186401   C788.380493,636.486755 769.766602,670.308350 745.019348,700.744751   C743.600525,702.489746 742.783691,704.898499 740.095520,705.778259   C737.167419,702.906006 736.381714,698.849182 734.662476,695.346008   C732.023315,689.968323 729.922424,684.326904 727.294434,678.943176   C725.947021,676.182800 726.143005,674.142090 728.012939,671.682983   C748.392700,644.881104 763.164612,615.195679 772.983032,583.042847   C781.448425,555.320923 785.321716,526.964783 785.088196,497.937469   C784.821472,464.777496 778.781921,432.727417 767.327576,401.750092   C755.014526,368.450867 737.095276,338.394379 713.190613,312.003876   C669.797302,264.097992 616.432617,233.831711 552.944092,221.671326   C524.467773,216.217072 495.798859,215.753296 466.967133,218.998718   C434.326935,222.672806 403.567322,232.366760 374.198578,246.742004   C370.180878,248.708557 367.774261,248.186844 364.731415,245.007050   C358.879547,238.891815 352.508057,233.273788 346.680847,227.111694   C347.785980,224.512390 349.635223,224.215927 351.035736,223.469055   C383.950470,205.916321 418.843475,194.139160 455.765045,188.951889   C481.195526,185.379059 506.724884,184.761887 532.434265,187.423080   C587.855164,193.159668 638.396973,211.790268 683.613708,244.075714   C732.748596,279.158813 769.303711,324.597351 792.332581,380.663635   C797.718201,393.775421 802.433838,407.084076 806.034058,421.225647  z"/><path fill="#000000" opacity="1.000000" stroke="none" d=" M355.010864,744.952698   C387.766327,764.471924 422.747620,776.728882 460.042664,782.323608   C485.337677,786.118103 510.682526,786.147583 536.102356,783.024780   C554.679382,780.742554 572.662048,776.149780 590.502075,770.761658   C596.422791,768.973450 596.978882,769.551758 596.784729,775.867798   C596.570190,782.847717 596.488403,789.839722 596.648682,796.819580   C596.725830,800.176575 595.697327,801.796692 592.297791,802.806152   C552.919189,814.499268 512.743469,819.369629 471.882111,815.079834   C419.611542,809.592285 370.901978,793.412048 326.949524,763.903320   C290.631042,739.519836 260.330994,709.160217 236.469360,672.591431   C213.732712,637.746765 198.919876,599.523804 191.072311,558.706177   C186.696701,535.947327 184.690338,512.885437 185.773682,489.690552   C186.861374,466.402466 190.291611,443.415680 196.078049,420.807159   C196.659836,418.533997 197.180954,416.152496 200.329178,416.171082   C209.154755,416.223267 217.980591,416.239532 226.805801,416.325073   C227.398956,416.330780 227.987640,416.795959 229.318268,417.362366   C206.644913,493.422058 214.139511,566.801086 251.222443,636.671875   C275.407532,682.240906 310.654724,717.876831 355.010864,744.952698  z"/></svg></g></g><rect transform="rotate(0 73.16250000000005 20.03164207306717) translate(73.16250000000005 20.03164207306717) scale(1, 1) translate(-73.16250000000005 -20.03164207306717)" x="73.16250000000005" y="20.03164207306717" rx="0" ry="0" width="63.17500000000004" height="63.174999999999855" fill="none" stroke="#000000" stroke-opacity="1" stroke-width="0" stroke-dasharray="0,0" stroke-linejoin="round"></rect><path d="M 71.50000000000003 84.86914207306711 L 71.50000000000003 18.369142073067177" fill="none" stroke="#000000" fill-opacity="1" stroke-opacity="1" stroke-width="0.19999999999999998" stroke-dasharray="0,0" stroke-linecap="round" stroke-linejoin="round"></path><path d="M 138 18.36914207306717 L 138 84.86914207306708" fill="none" stroke="#000000" fill-opacity="1" stroke-opacity="1" stroke-width="0.3" stroke-dasharray="0,0" stroke-linecap="round" stroke-linejoin="round"></path><path d="M0 10 L0 0 L10 0         M200 0 L210 0 L210 10        M210 287 L210 297 L200 297        M10 297 L0 297 L0 287" stroke="black" fill="none" stroke-width="0.5"></path><g transform="translate(20 -10)"></g></svg>