<svg width="100" height="100" viewBox="100 400 100 100" xmlns="http://www.w3.org/2000/svg"><path d="M 185.07899276960643 450.6007349807314 A 35.078992769606415 35.078992769606415 0 1 1 185.0789752301115 450.56565599380826" stroke="#000000" fill="none" fill-opacity="1" stroke-opacity="1" stroke-width="6" stroke-dasharray="0,0" stroke-linecap="round"></path><path d="M169.3 450.1L168.1 446.8L157.6 446.8L156.4 450.2Q155.6 452.1 155.1 452.8Q154.6 453.4 153.5 453.4Q152.5 453.4 151.7 452.7Q151 452 151 451.1Q151 450.6 151.1 450Q151.3 449.4 151.7 448.4L158.3 431.7Q158.6 431 159 430Q159.4 429 159.8 428.3Q160.3 427.6 161 427.2Q161.7 426.8 162.8 426.8Q163.9 426.8 164.6 427.2Q165.4 427.6 165.8 428.3Q166.3 428.9 166.6 429.7Q166.9 430.4 167.3 431.7L174.1 448.3Q174.9 450.2 174.9 451Q174.9 451.9 174.1 452.7Q173.4 453.4 172.3 453.4Q171.7 453.4 171.3 453.2Q170.8 453 170.5 452.6Q170.2 452.2 169.9 451.5Q169.5 450.7 169.3 450.1M162.8 432.3L159 442.9L166.7 442.9L162.8 432.3M181.9 427.2L188.7 427.2Q191.4 427.2 193.3 427.7Q195.2 428.2 196.7 429.6Q200.8 433 200.8 440Q200.8 442.4 200.4 444.3Q200 446.2 199.1 447.7Q198.3 449.3 197 450.5Q195.9 451.4 194.7 452Q193.5 452.5 192 452.8Q190.6 453 188.8 453L182 453Q180.6 453 179.9 452.6Q179.2 452.1 179 451.4Q178.7 450.6 178.7 449.3L178.7 430.4Q178.7 428.7 179.5 428Q180.3 427.2 181.9 427.2M187.4 431.4L184 431.4L184 448.9L187.9 448.9Q189.2 448.9 190 448.8Q190.7 448.7 191.5 448.4Q192.3 448.1 192.9 447.6Q195.5 445.4 195.5 440Q195.5 436.2 194.3 434.3Q193.2 432.4 191.5 431.9Q189.8 431.4 187.4 431.4 Z" stroke-width="1.08" stroke="#000000" stroke-linejoin="miter" fill="#000000" fill-opacity="1" transform="rotate(0 150 453.0036749036568) translate(-24.8994140625, 10.40625)"></path><path d="M 125.19540633541742 475.40532864531394 L 137.43213437085603 463.16860060987534" fill="none" stroke="#000000" fill-opacity="1" stroke-opacity="1" stroke-width="6" stroke-dasharray="0,0" stroke-linecap="butt" stroke-linejoin="round"></path><path d="M 166.00745812319445 434.5932768575369 L 174.80459366458257 425.7961413161488" fill="none" stroke="#000000" fill-opacity="1" stroke-opacity="1" stroke-width="6" stroke-dasharray="0,0" stroke-linecap="butt" stroke-linejoin="round"></path></svg>