<svg width="100" height="100" viewBox="300 400 100 100" xmlns="http://www.w3.org/2000/svg"><path d="M 352.3624255258819 476.76391046148007 A 2.643239515161674 2.643239515161674 0 1 1 352.36242420426225 476.7612672224054" stroke="#000000" fill="#000000" fill-opacity="1" stroke-opacity="1" stroke-width="2" stroke-dasharray="0,0" stroke-linecap="round"></path><path d="M 337.243531707451 464.2882561582108 A 17.643239515161675 17.643239515161675 0 0 1 362.1948403139895 464.2882561582108" stroke="#000000" fill="none" fill-opacity="1" stroke-opacity="1" stroke-width="6" stroke-dasharray="0,0" stroke-linecap="round"></path><path d="M 325.71422260246027 452.7589470532201 A 33.94814481623115 33.94814481623115 0 0 1 340.9327595863812 443.97252062888106" stroke="#000000" fill="none" fill-opacity="1" stroke-opacity="1" stroke-width="6" stroke-dasharray="0,0" stroke-linecap="round"></path><path d="M 314.03266869175457 441.0773931425144 A 50.46835678634358 50.46835678634358 0 0 1 329.9996280105929 430.3075430938814" stroke="#000000" fill="none" fill-opacity="1" stroke-opacity="1" stroke-width="6" stroke-dasharray="0,0" stroke-linecap="round"></path><path d="M 382 481.9999999999999 L 318 418" fill="none" stroke="#000000" fill-opacity="1" stroke-opacity="1" stroke-width="6" stroke-dasharray="0,0" stroke-linecap="round" stroke-linejoin="round"></path><path d="M 355.6142194932318 443.33151424607445 A 33.94814481623115 33.94814481623115 0 0 1 372.4349287363633 451.5355223067407" stroke="#000000" fill="none" fill-opacity="1" stroke-opacity="1" stroke-width="6" stroke-dasharray="0,0" stroke-linecap="round"></path><path d="M 340.9554478249272 427.0622814165026 A 50.46835678634358 50.46835678634358 0 0 1 384.1385225740556 439.8536909111507" stroke="#000000" fill="none" fill-opacity="1" stroke-opacity="1" stroke-width="6" stroke-dasharray="0,0" stroke-linecap="round"></path></svg>